<?xml version="1.0" standalone="no"?>
<!DOCTYPE svg PUBLIC "-//W3C//DTD SVG 20010904//EN"
 "http://www.w3.org/TR/2001/REC-SVG-20010904/DTD/svg10.dtd">
<svg version="1.0" xmlns="http://www.w3.org/2000/svg"
 width="2048.000000pt" height="2048.000000pt" viewBox="0 0 2048.000000 2048.000000"
 preserveAspectRatio="xMidYMid meet">
<metadata>
Created by potrace 1.14, written by Peter Selinger 2001-2017
</metadata>
<g transform="translate(0.000000,2048.000000) scale(0.100000,-0.100000)"
fill="#000000" stroke="none">
<path d="M17997 20354 c-1 -1 -24 -4 -52 -8 -89 -10 -215 -51 -305 -99 -115
-61 -292 -217 -323 -284 -6 -13 -14 -23 -19 -23 -4 0 -8 -4 -8 -9 0 -5 -15
-36 -34 -68 -41 -69 -90 -212 -104 -303 -5 -36 -8 -114 -7 -175 11 -379 252
-714 607 -844 115 -43 181 -54 313 -55 156 -1 206 7 328 49 295 103 515 348
598 663 29 107 31 317 5 422 -96 391 -401 673 -786 726 -41 6 -208 12 -213 8z"/>
<path d="M15915 19513 c-71 -13 -261 -58 -320 -75 -320 -94 -572 -373 -640
-708 -26 -129 -26 -231 0 -383 28 -154 145 -365 264 -475 20 -18 47 -43 61
-56 14 -13 52 -40 84 -61 220 -141 491 -185 740 -119 34 8 72 18 86 20 204 39
382 133 514 269 80 82 174 228 207 320 27 76 43 135 41 146 -1 4 3 22 9 40 10
36 13 234 4 284 -14 72 -36 162 -44 180 -80 181 -125 252 -227 351 -121 119
-243 190 -409 239 -73 22 -114 27 -220 29 -71 2 -139 1 -150 -1z"/>
<path d="M14190 18050 c-143 -30 -277 -89 -385 -170 -44 -33 -173 -168 -203
-212 -172 -251 -214 -576 -111 -856 65 -179 191 -342 349 -453 34 -24 46 -30
119 -68 159 -81 341 -112 534 -88 363 44 682 317 779 667 92 334 5 677 -234
920 -221 225 -541 323 -848 260z"/>
<path d="M10695 16186 c-5 -2 -43 -12 -83 -21 -264 -60 -499 -249 -625 -500
-37 -74 -74 -200 -87 -296 -11 -80 -9 -744 5 -1659 3 -162 7 -612 10 -1000 4
-388 8 -774 10 -859 l3 -153 -681 6 c-375 3 -875 8 -1112 11 -236 3 -695 7
-1020 10 -324 3 -799 7 -1055 10 -256 3 -733 7 -1060 10 -327 3 -795 7 -1040
10 -245 3 -719 7 -1055 10 -335 3 -803 8 -1040 11 -360 4 -444 2 -517 -10
-180 -32 -348 -114 -480 -235 -284 -261 -380 -678 -237 -1038 62 -156 190
-322 314 -408 75 -51 97 -74 186 -190 41 -53 98 -126 127 -163 29 -37 77 -98
107 -137 30 -38 79 -101 110 -140 30 -38 79 -101 109 -140 29 -38 111 -142
180 -230 122 -154 189 -240 286 -365 85 -109 159 -205 230 -295 39 -49 95
-121 125 -160 30 -38 79 -101 110 -140 30 -38 76 -98 102 -131 27 -34 109
-140 183 -234 219 -280 269 -344 390 -500 25 -32 83 -106 130 -166 123 -156
174 -220 235 -299 30 -38 79 -101 110 -140 62 -79 134 -171 227 -292 35 -44
90 -115 123 -158 33 -42 84 -106 112 -143 29 -37 79 -100 110 -141 32 -40 78
-99 103 -131 103 -132 319 -408 372 -474 32 -39 72 -91 89 -116 78 -109 188
-211 298 -276 156 -91 363 -142 531 -129 88 6 236 37 271 56 23 12 258 15
1614 24 506 3 1179 7 1495 10 316 3 892 7 1280 10 388 3 1048 8 1468 11 639 5
762 4 762 -7 0 -10 2 -11 8 -2 5 8 148 13 537 17 584 6 2141 17 2860 19 l460
2 100 -37 c295 -109 627 -51 889 153 104 82 271 290 331 414 25 50 56 135 71
190 14 55 48 150 76 210 106 236 132 292 158 350 16 33 49 107 75 165 56 126
118 263 156 345 15 33 46 103 69 155 48 108 120 267 160 355 16 33 47 103 70
155 48 108 120 267 160 355 16 33 47 103 70 155 68 153 130 290 160 355 16 33
47 103 70 155 64 145 129 290 155 345 13 28 45 97 70 155 88 196 137 305 160
355 13 28 45 97 70 155 88 196 137 305 160 355 13 28 45 97 70 155 85 189 136
304 170 375 113 240 124 501 32 751 -81 220 -282 429 -505 524 -174 74 -397
95 -577 55 -71 -15 -132 -17 -530 -16 -247 1 -562 4 -700 6 -137 2 -596 7
-1020 10 -423 3 -898 8 -1055 10 -157 3 -293 5 -302 5 -17 0 -18 78 -18 1494
l0 1493 45 95 c64 136 88 244 88 398 0 195 -46 355 -145 507 -128 196 -312
333 -535 399 -93 27 -205 36 -613 48 -179 6 -453 15 -1055 36 -159 5 -360 12
-445 15 -85 3 -211 7 -280 10 -69 3 -199 8 -290 10 -91 3 -293 10 -450 15
-355 13 -792 21 -805 16z"/>
</g>
</svg>
